<svg width="21" height="21" viewBox="0 0 21 21" fill="none" xmlns="http://www.w3.org/2000/svg">
<path d="M18.2929 15.832H16.6523V14.1914C16.6523 14.1012 16.5785 14.0273 16.4882 14.0273H15.5039C15.4136 14.0273 15.3398 14.1012 15.3398 14.1914V15.832H13.6992C13.6089 15.832 13.5351 15.9059 13.5351 15.9961V16.9805C13.5351 17.0707 13.6089 17.1445 13.6992 17.1445H15.3398V18.7851C15.3398 18.8754 15.4136 18.9492 15.5039 18.9492H16.4882C16.5785 18.9492 16.6523 18.8754 16.6523 18.7851V17.1445H18.2929C18.3832 17.1445 18.457 17.0707 18.457 16.9805V15.9961C18.457 15.9059 18.3832 15.832 18.2929 15.832ZM7.65962 10.2211C7.64116 10.0427 7.63091 9.8622 7.63091 9.67968C7.63091 9.35361 7.66167 9.03574 7.71909 8.72607C7.73345 8.65224 7.69448 8.57636 7.62681 8.5456C7.3479 8.4205 7.09156 8.24824 6.87007 8.03085C6.60909 7.7778 6.40372 7.47313 6.26707 7.13627C6.13042 6.79941 6.06549 6.43776 6.07642 6.07441C6.09488 5.41611 6.35943 4.79062 6.82085 4.31894C7.3274 3.80009 8.00825 3.51708 8.73218 3.52529C9.38638 3.53144 10.018 3.78368 10.4959 4.23075C10.6579 4.38251 10.7973 4.55068 10.9142 4.73115C10.9552 4.79472 11.0352 4.82138 11.1049 4.79677C11.4659 4.67167 11.8473 4.58349 12.239 4.54247C12.3539 4.53017 12.4195 4.40712 12.3682 4.30458C11.7017 2.98593 10.34 2.07538 8.76499 2.05077C6.49273 2.01591 4.59781 3.88007 4.59781 6.15234C4.59781 7.44023 5.19048 8.58866 6.11948 9.3413C5.46734 9.64277 4.86646 10.0591 4.34556 10.58C3.22173 11.7018 2.58599 13.1824 2.54497 14.7636C2.54443 14.7855 2.54827 14.8072 2.55626 14.8276C2.56426 14.848 2.57626 14.8666 2.59155 14.8822C2.60684 14.8979 2.62511 14.9104 2.64529 14.9189C2.66547 14.9274 2.68714 14.9317 2.70904 14.9317H3.85952C3.94771 14.9317 4.02154 14.862 4.02359 14.7738C4.06255 13.5844 4.54448 12.4708 5.39146 11.6259C5.99439 11.0229 6.73267 10.6046 7.53863 10.4016C7.61656 10.379 7.66988 10.3031 7.65962 10.2211V10.2211ZM16.8984 9.67968C16.8984 7.43613 15.0958 5.61298 12.8604 5.57812C10.5881 5.54325 8.69527 7.40741 8.69527 9.67968C8.69527 10.9676 9.28999 12.116 10.2169 12.8686C9.55804 13.1741 8.95822 13.5934 8.44507 14.1073C7.32124 15.2291 6.6855 16.7098 6.64448 18.2889C6.64394 18.3107 6.64778 18.3325 6.65578 18.3529C6.66378 18.3733 6.67577 18.3919 6.69106 18.4075C6.70635 18.4232 6.72462 18.4357 6.7448 18.4442C6.76498 18.4527 6.78665 18.457 6.80855 18.457H7.95698C8.04517 18.457 8.119 18.3873 8.12105 18.2991C8.16001 17.1097 8.64195 15.9961 9.48892 15.1512C10.3728 14.2673 11.5459 13.7812 12.7968 13.7812C15.0609 13.7812 16.8984 11.9458 16.8984 9.67968ZM14.6528 11.5356C14.1565 12.0319 13.4982 12.3047 12.7968 12.3047C12.0955 12.3047 11.4372 12.0319 10.9409 11.5356C10.6932 11.2893 10.4975 10.9957 10.3654 10.6723C10.2333 10.3489 10.1675 10.0023 10.1718 9.65302C10.178 8.98036 10.4466 8.33027 10.9163 7.84833C11.4084 7.34384 12.0668 7.06288 12.7702 7.05468C13.4654 7.04853 14.1401 7.31923 14.6364 7.80527C15.145 8.30361 15.4239 8.97011 15.4239 9.67968C15.4218 10.381 15.1491 11.0393 14.6528 11.5356V11.5356Z" fill="#9747FF"/>
</svg>
