<svg width="38" height="35" viewBox="0 0 38 35" fill="none" xmlns="http://www.w3.org/2000/svg">
<rect width="37.0149" height="35" rx="10" fill="#C571F8"/>
<path d="M17.9761 15C17.9761 15.2652 17.8707 15.5196 17.6832 15.7071C17.4956 15.8946 17.2413 16 16.9761 16C16.7109 16 16.4565 15.8946 16.269 15.7071C16.0814 15.5196 15.9761 15.2652 15.9761 15C15.9761 14.7348 16.0814 14.4804 16.269 14.2929C16.4565 14.1054 16.7109 14 16.9761 14C17.2413 14 17.4956 14.1054 17.6832 14.2929C17.8707 14.4804 17.9761 14.7348 17.9761 15V15Z" fill="#F8F8F8"/>
<path d="M20.9709 16C21.2362 16 21.4905 15.8946 21.6781 15.7071C21.8656 15.5196 21.9709 15.2652 21.9709 15C21.9709 14.7348 21.8656 14.4804 21.6781 14.2929C21.4905 14.1054 21.2362 14 20.9709 14C20.7057 14 20.4514 14.1054 20.2638 14.2929C20.0763 14.4804 19.9709 14.7348 19.9709 15C19.9709 15.2652 20.0763 15.5196 20.2638 15.7071C20.4514 15.8946 20.7057 16 20.9709 16V16Z" fill="#F8F8F8"/>
<path fill-rule="evenodd" clip-rule="evenodd" d="M26 27V16C26 15.0807 25.8189 14.1705 25.4672 13.3212C25.1154 12.4719 24.5998 11.7003 23.9497 11.0503C23.2997 10.4002 22.5281 9.88463 21.6788 9.53284C20.8295 9.18106 19.9193 9 19 9C18.0807 9 17.1705 9.18106 16.3212 9.53284C15.4719 9.88463 14.7003 10.4002 14.0503 11.0503C13.4002 11.7003 12.8846 12.4719 12.5328 13.3212C12.1811 14.1705 12 15.0807 12 16V27H14.828L16.243 25.586L17.657 27H20.343L21.757 25.586L23.172 27H26ZM24 16C24 14.6739 23.4732 13.4021 22.5355 12.4645C21.5979 11.5268 20.3261 11 19 11C17.6739 11 16.4021 11.5268 15.4645 12.4645C14.5268 13.4021 14 14.6739 14 16V25L16.243 22.757L19 25.515L21.757 22.757L24 25V16Z" fill="#F8F8F8"/>
</svg>
