<svg width="23" height="21" viewBox="0 0 23 21" fill="none" xmlns="http://www.w3.org/2000/svg">
<path d="M11.0719 2.61627C10.057 2.61627 9.22656 3.40116 9.22656 4.36046C9.22656 5.31976 10.057 6.10464 11.0719 6.10464C12.0868 6.10464 12.9172 5.31976 12.9172 4.36046C12.9172 3.40116 12.0868 2.61627 11.0719 2.61627ZM11.0719 14.8256C10.057 14.8256 9.22656 15.6105 9.22656 16.5698C9.22656 17.5291 10.057 18.3139 11.0719 18.3139C12.0868 18.3139 12.9172 17.5291 12.9172 16.5698C12.9172 15.6105 12.0868 14.8256 11.0719 14.8256ZM11.0719 8.72092C10.057 8.72092 9.22656 9.50581 9.22656 10.4651C9.22656 11.4244 10.057 12.2093 11.0719 12.2093C12.0868 12.2093 12.9172 11.4244 12.9172 10.4651C12.9172 9.50581 12.0868 8.72092 11.0719 8.72092Z" fill="#505050"/>
</svg>
