<svg width="38" height="35" viewBox="0 0 38 35" fill="none" xmlns="http://www.w3.org/2000/svg">
<rect x="0.985107" width="37.0149" height="35" rx="10" fill="#C571F8"/>
<path d="M13.2463 18.1562H17.4105V16.8437H13.2463V10.8364C13.2463 10.7794 13.2621 10.7234 13.292 10.6739C13.3218 10.6243 13.3649 10.583 13.4168 10.554C13.4687 10.525 13.5277 10.5093 13.588 10.5084C13.6483 10.5075 13.7078 10.5215 13.7606 10.549L26.5738 17.2126C26.6282 17.2409 26.6736 17.2825 26.7052 17.3331C26.7368 17.3836 26.7534 17.4413 26.7534 17.5C26.7534 17.5587 26.7368 17.6164 26.7052 17.6669C26.6736 17.7175 26.6282 17.7591 26.5738 17.7874L13.7606 24.451C13.7078 24.4785 13.6483 24.4925 13.588 24.4916C13.5277 24.4907 13.4687 24.475 13.4168 24.446C13.3649 24.417 13.3218 24.3756 13.292 24.3261C13.2621 24.2766 13.2463 24.2206 13.2463 24.1636V18.1562Z" fill="white"/>
</svg>
